<svg width="95" height="19" viewBox="0 0 95 19" fill="none" xmlns="http://www.w3.org/2000/svg">
<path d="M21.2969 13.1406C21.2969 13.8073 21.1771 14.401 20.9375 14.9219C20.6979 15.4323 20.3646 15.8802 19.9375 16.2656C19.5104 16.6406 19 16.9635 18.4062 17.2344C17.8229 17.4948 17.1875 17.7083 16.5 17.875C15.8125 18.0312 15.0781 18.1406 14.2969 18.2031C13.526 18.276 12.7448 18.3125 11.9531 18.3125C10.8385 18.3125 9.72917 18.2552 8.625 18.1406C7.52083 18.026 6.48958 17.8854 5.53125 17.7188C4.57292 17.5417 3.72396 17.3542 2.98438 17.1562C2.25521 16.9583 1.70312 16.7708 1.32812 16.5938C1.18229 16.5208 1.07292 16.4323 1 16.3281C0.9375 16.2135 0.90625 16.099 0.90625 15.9844C0.90625 15.8594 0.9375 15.7552 1 15.6719C1.07292 15.5781 1.17708 15.5312 1.3125 15.5312C1.375 15.5312 1.44792 15.5469 1.53125 15.5781C1.9375 15.7448 2.52083 15.9271 3.28125 16.125C4.04167 16.3229 4.90104 16.5104 5.85938 16.6875C6.82812 16.8542 7.85417 16.9948 8.9375 17.1094C10.0312 17.224 11.1146 17.2812 12.1875 17.2812C13.2292 17.2812 14.2188 17.2135 15.1562 17.0781C16.0938 16.9427 16.9167 16.7135 17.625 16.3906C18.3438 16.0677 18.9115 15.6406 19.3281 15.1094C19.7552 14.5781 19.9688 13.9219 19.9688 13.1406C19.9688 12.4844 19.7865 11.9479 19.4219 11.5312C19.0677 11.1042 18.5833 10.7656 17.9688 10.5156C17.3542 10.2552 16.6354 10.0625 15.8125 9.9375C14.9896 9.80208 14.1146 9.70312 13.1875 9.64062C12.2708 9.56771 11.3229 9.51562 10.3438 9.48438C9.36458 9.44271 8.41146 9.38021 7.48438 9.29688C6.56771 9.21354 5.69792 9.09375 4.875 8.9375C4.05208 8.78125 3.33333 8.55208 2.71875 8.25C2.10417 7.94792 1.61458 7.55729 1.25 7.07812C0.895833 6.59896 0.71875 5.99479 0.71875 5.26562C0.71875 4.59896 0.84375 4.01042 1.09375 3.5C1.34375 2.98958 1.6875 2.55208 2.125 2.1875C2.5625 1.8125 3.07812 1.50521 3.67188 1.26562C4.27604 1.01562 4.92708 0.817708 5.625 0.671875C6.33333 0.526042 7.07292 0.421875 7.84375 0.359375C8.625 0.296875 9.40625 0.265625 10.1875 0.265625C11.1562 0.265625 12.1094 0.3125 13.0469 0.40625C13.9844 0.489583 14.8646 0.609375 15.6875 0.765625C16.5104 0.911458 17.25 1.07812 17.9062 1.26562C18.5625 1.44271 19.0885 1.625 19.4844 1.8125C19.5677 1.85417 19.6302 1.91667 19.6719 2C19.7135 2.07292 19.7344 2.15104 19.7344 2.23438C19.7344 2.38021 19.6823 2.51562 19.5781 2.64062C19.4844 2.76562 19.349 2.82812 19.1719 2.82812C19.0677 2.82812 18.9792 2.80729 18.9062 2.76562C18.3542 2.53646 17.7396 2.33333 17.0625 2.15625C16.3958 1.96875 15.6875 1.8125 14.9375 1.6875C14.1875 1.5625 13.4115 1.46875 12.6094 1.40625C11.8177 1.33333 11.0312 1.29688 10.25 1.29688C9.16667 1.29688 8.13021 1.35938 7.14062 1.48438C6.15104 1.60938 5.27604 1.82292 4.51562 2.125C3.76562 2.41667 3.16667 2.8125 2.71875 3.3125C2.27083 3.80208 2.04688 4.42188 2.04688 5.17188C2.04688 5.74479 2.22396 6.21354 2.57812 6.57812C2.94271 6.93229 3.43229 7.21875 4.04688 7.4375C4.66146 7.65625 5.38021 7.82292 6.20312 7.9375C7.02604 8.04167 7.89583 8.125 8.8125 8.1875C9.73958 8.25 10.6927 8.30729 11.6719 8.35938C12.651 8.40104 13.599 8.47917 14.5156 8.59375C15.4427 8.69792 16.3177 8.84896 17.1406 9.04688C17.9635 9.23438 18.6823 9.5 19.2969 9.84375C19.9115 10.1875 20.3958 10.6302 20.75 11.1719C21.1146 11.7031 21.2969 12.3594 21.2969 13.1406Z" fill="white"/>
<path d="M30.2213 1.39062C30.3879 1.08854 30.5181 0.880208 30.6119 0.765625C30.7056 0.651042 30.8463 0.59375 31.0338 0.59375C31.1796 0.59375 31.3046 0.651042 31.4088 0.765625C31.5233 0.869792 31.6692 1.07812 31.8463 1.39062L40.4713 16.9531C40.5858 17.1615 40.6431 17.3646 40.6431 17.5625C40.6431 17.75 40.591 17.8958 40.4869 18C40.3827 18.1042 40.2577 18.1562 40.1119 18.1562C39.966 18.1562 39.8202 18.1042 39.6744 18C39.539 17.9062 39.3983 17.7292 39.2525 17.4688L36.5963 12.6562H25.4713L22.7838 17.5312C22.6692 17.75 22.5338 17.9062 22.3775 18C22.2317 18.1042 22.0858 18.1562 21.94 18.1562C21.7629 18.1562 21.6327 18.0938 21.5494 17.9688C21.466 17.8438 21.4244 17.6771 21.4244 17.4688C21.4244 17.3854 21.44 17.3021 21.4713 17.2188C21.5129 17.1354 21.5598 17.0417 21.6119 16.9375L30.2213 1.39062ZM36.1431 11.7344L31.0338 2.40625L25.9244 11.7344H36.1431Z" fill="white"/>
<path d="M42.1769 18C42.0206 18 41.8956 17.9948 41.8019 17.9844C41.7185 17.974 41.656 17.9531 41.6144 17.9219C41.5727 17.8802 41.5467 17.8229 41.5363 17.75C41.5363 17.6667 41.5363 17.5573 41.5363 17.4219V1.60938C41.5363 1.33854 41.5831 1.10417 41.6769 0.90625C41.7706 0.697917 41.9685 0.59375 42.2706 0.59375C42.5206 0.59375 42.6821 0.703125 42.755 0.921875C42.8279 1.13021 42.8644 1.35938 42.8644 1.60938V16.9688H56.2863C56.4946 16.9688 56.6508 17.026 56.755 17.1406C56.8696 17.2448 56.9269 17.3594 56.9269 17.4844C56.9269 17.6198 56.8696 17.7396 56.755 17.8438C56.6508 17.9479 56.4946 18 56.2863 18H42.1769Z" fill="white"/>
<path d="M72.9294 17.4531C72.9294 17.6094 72.9033 17.724 72.8512 17.7969C72.7992 17.8698 72.7262 17.9219 72.6325 17.9531C72.5492 17.9844 72.445 18 72.32 18C72.195 18 72.0544 18 71.8981 18H57.3044C57.2002 18 57.1221 17.9948 57.07 17.9844C57.0179 17.974 56.9762 17.9479 56.945 17.9062C56.9242 17.8646 56.9085 17.8125 56.8981 17.75C56.8981 17.6771 56.8981 17.5781 56.8981 17.4531V1.32812C56.8981 1.17188 56.8981 1.04688 56.8981 0.953125C56.9085 0.859375 56.9294 0.786458 56.9606 0.734375C56.9919 0.682292 57.044 0.645833 57.1169 0.625C57.2002 0.604167 57.32 0.59375 57.4762 0.59375H71.7419C71.8981 0.59375 72.044 0.59375 72.1794 0.59375C72.3148 0.59375 72.4346 0.609375 72.5387 0.640625C72.6533 0.671875 72.7419 0.723958 72.8044 0.796875C72.8669 0.869792 72.8981 0.984375 72.8981 1.14062C72.8981 1.26562 72.8669 1.36458 72.8044 1.4375C72.7419 1.5 72.6533 1.54688 72.5387 1.57812C72.4346 1.60938 72.3148 1.625 72.1794 1.625C72.044 1.625 71.8981 1.625 71.7419 1.625H58.2262V8.46875H71.6637C71.8929 8.46875 72.0856 8.5 72.2419 8.5625C72.3981 8.625 72.4762 8.76042 72.4762 8.96875C72.4762 9.19792 72.4085 9.34896 72.2731 9.42188C72.1481 9.49479 71.9815 9.53125 71.7731 9.53125H58.2262V16.9688H71.7731C71.9294 16.9688 72.0752 16.9688 72.2106 16.9688C72.346 16.9688 72.4658 16.9844 72.57 17.0156C72.6846 17.0469 72.7731 17.099 72.8356 17.1719C72.8981 17.2344 72.9294 17.3281 72.9294 17.4531Z" fill="white"/>
<path d="M94.1506 13.1406C94.1506 13.8073 94.0308 14.401 93.7913 14.9219C93.5517 15.4323 93.2183 15.8802 92.7913 16.2656C92.3642 16.6406 91.8538 16.9635 91.26 17.2344C90.6767 17.4948 90.0413 17.7083 89.3538 17.875C88.6663 18.0312 87.9319 18.1406 87.1506 18.2031C86.3798 18.276 85.5985 18.3125 84.8069 18.3125C83.6923 18.3125 82.5829 18.2552 81.4788 18.1406C80.3746 18.026 79.3433 17.8854 78.385 17.7188C77.4267 17.5417 76.5777 17.3542 75.8381 17.1562C75.109 16.9583 74.5569 16.7708 74.1819 16.5938C74.036 16.5208 73.9267 16.4323 73.8538 16.3281C73.7913 16.2135 73.76 16.099 73.76 15.9844C73.76 15.8594 73.7913 15.7552 73.8538 15.6719C73.9267 15.5781 74.0308 15.5312 74.1663 15.5312C74.2288 15.5312 74.3017 15.5469 74.385 15.5781C74.7913 15.7448 75.3746 15.9271 76.135 16.125C76.8954 16.3229 77.7548 16.5104 78.7131 16.6875C79.6819 16.8542 80.7079 16.9948 81.7913 17.1094C82.885 17.224 83.9683 17.2812 85.0413 17.2812C86.0829 17.2812 87.0725 17.2135 88.01 17.0781C88.9475 16.9427 89.7704 16.7135 90.4788 16.3906C91.1975 16.0677 91.7652 15.6406 92.1819 15.1094C92.609 14.5781 92.8225 13.9219 92.8225 13.1406C92.8225 12.4844 92.6402 11.9479 92.2756 11.5312C91.9215 11.1042 91.4371 10.7656 90.8225 10.5156C90.2079 10.2552 89.4892 10.0625 88.6663 9.9375C87.8433 9.80208 86.9683 9.70312 86.0413 9.64062C85.1246 9.56771 84.1767 9.51562 83.1975 9.48438C82.2183 9.44271 81.2652 9.38021 80.3381 9.29688C79.4215 9.21354 78.5517 9.09375 77.7288 8.9375C76.9058 8.78125 76.1871 8.55208 75.5725 8.25C74.9579 7.94792 74.4683 7.55729 74.1038 7.07812C73.7496 6.59896 73.5725 5.99479 73.5725 5.26562C73.5725 4.59896 73.6975 4.01042 73.9475 3.5C74.1975 2.98958 74.5413 2.55208 74.9788 2.1875C75.4163 1.8125 75.9319 1.50521 76.5256 1.26562C77.1298 1.01562 77.7808 0.817708 78.4788 0.671875C79.1871 0.526042 79.9267 0.421875 80.6975 0.359375C81.4788 0.296875 82.26 0.265625 83.0413 0.265625C84.01 0.265625 84.9631 0.3125 85.9006 0.40625C86.8381 0.489583 87.7183 0.609375 88.5413 0.765625C89.3642 0.911458 90.1038 1.07812 90.76 1.26562C91.4163 1.44271 91.9423 1.625 92.3381 1.8125C92.4215 1.85417 92.484 1.91667 92.5256 2C92.5673 2.07292 92.5881 2.15104 92.5881 2.23438C92.5881 2.38021 92.536 2.51562 92.4319 2.64062C92.3381 2.76562 92.2027 2.82812 92.0256 2.82812C91.9215 2.82812 91.8329 2.80729 91.76 2.76562C91.2079 2.53646 90.5933 2.33333 89.9163 2.15625C89.2496 1.96875 88.5413 1.8125 87.7913 1.6875C87.0413 1.5625 86.2652 1.46875 85.4631 1.40625C84.6715 1.33333 83.885 1.29688 83.1038 1.29688C82.0204 1.29688 80.984 1.35938 79.9944 1.48438C79.0048 1.60938 78.1298 1.82292 77.3694 2.125C76.6194 2.41667 76.0204 2.8125 75.5725 3.3125C75.1246 3.80208 74.9006 4.42188 74.9006 5.17188C74.9006 5.74479 75.0777 6.21354 75.4319 6.57812C75.7965 6.93229 76.286 7.21875 76.9006 7.4375C77.5152 7.65625 78.234 7.82292 79.0569 7.9375C79.8798 8.04167 80.7496 8.125 81.6663 8.1875C82.5933 8.25 83.5465 8.30729 84.5256 8.35938C85.5048 8.40104 86.4527 8.47917 87.3694 8.59375C88.2965 8.69792 89.1715 8.84896 89.9944 9.04688C90.8173 9.23438 91.536 9.5 92.1506 9.84375C92.7652 10.1875 93.2496 10.6302 93.6038 11.1719C93.9683 11.7031 94.1506 12.3594 94.1506 13.1406Z" fill="white"/>
</svg>
